{
    "asset" : {
        "generator" : "Khronos glTF Blender I/O v1.7.33",
        "version" : "2.0"
    },
    "extensionsUsed" : [
        "KHR_materials_unlit"
    ],
    "scene" : 0,
    "scenes" : [
        {
            "name" : "Scene",
            "nodes" : [
                0,
                1,
                2,
                3
            ]
        }
    ],
    "nodes" : [
        {
            "mesh" : 0,
            "name" : "Cube.005",
            "scale" : [
                1.8813291788101196,
                4.311012268066406,
                1.8813186883926392
            ],
            "translation" : [
                0,
                6,
                0
            ]
        },
        {
            "mesh" : 1,
            "name" : "Cube",
            "scale" : [
                2.174999952316284,
                6,
                2.174999952316284
            ],
            "translation" : [
                0,
                6,
                0
            ]
        },
        {
            "mesh" : 2,
            "name" : "Cube.007",
            "rotation" : [
                0,
                -0.7071068286895752,
                0,
                0.7071068286895752
            ],
            "scale" : [
                1.8961262702941895,
                3.5119152069091797,
                1.8574297428131104
            ],
            "translation" : [
                -0.9394888877868652,
                6,
                0.02176070213317871
            ]
        },
        {
            "mesh" : 3,
            "name" : "Cube.001",
            "scale" : [
                2.174999952316284,
                0.10000000149011612,
                2.174999952316284
            ],
            "translation" : [
                0,
                12,
                0
            ]
        }
    ],
    "materials" : [
        {
            "alphaMode" : "BLEND",
            "doubleSided" : true,
            "emissiveFactor" : [
                0,
                0.6866855025291443,
                0.7991029620170593
            ],
            "name" : "Material.011",
            "pbrMetallicRoughness" : {
                "baseColorFactor" : [
                    0.046665091067552567,
                    0.046665091067552567,
                    0.046665091067552567,
                    1
                ],
                "metallicFactor" : 0,
                "roughnessFactor" : 0.5
            }
        },
        {
            "alphaMode" : "BLEND",
            "doubleSided" : true,
            "name" : "Material.010",
            "pbrMetallicRoughness" : {
                "baseColorFactor" : [
                    0.800000011920929,
                    0.800000011920929,
                    0.800000011920929,
                    1
                ],
                "metallicFactor" : 0,
                "roughnessFactor" : 0.5
            }
        },
        {
            "doubleSided" : true,
            "extensions" : {
                "KHR_materials_unlit" : {}
            },
            "name" : "Material.006",
            "pbrMetallicRoughness" : {
                "baseColorFactor" : [
                    0.800000011920929,
                    0.800000011920929,
                    0.800000011920929,
                    1
                ],
                "metallicFactor" : 0,
                "roughnessFactor" : 0.9
            }
        }
    ],
    "meshes" : [
        {
            "name" : "Cube.006",
            "primitives" : [
                {
                    "attributes" : {
                        "POSITION" : 0,
                        "NORMAL" : 1,
                        "TEXCOORD_0" : 2
                    },
                    "indices" : 3,
                    "material" : 0
                }
            ]
        },
        {
            "name" : "Cube.008",
            "primitives" : [
                {
                    "attributes" : {
                        "POSITION" : 4,
                        "NORMAL" : 5,
                        "TEXCOORD_0" : 6
                    },
                    "indices" : 7,
                    "material" : 1
                }
            ]
        },
        {
            "name" : "Cube.007",
            "primitives" : [
                {
                    "attributes" : {
                        "POSITION" : 8,
                        "NORMAL" : 9,
                        "TEXCOORD_0" : 10
                    },
                    "indices" : 11,
                    "material" : 2
                }
            ]
        },
        {
            "name" : "Cube",
            "primitives" : [
                {
                    "attributes" : {
                        "POSITION" : 12,
                        "NORMAL" : 13,
                        "TEXCOORD_0" : 14
                    },
                    "indices" : 7
                }
            ]
        }
    ],
    "accessors" : [
        {
            "bufferView" : 0,
            "componentType" : 5126,
            "count" : 1059,
            "max" : [
                1.1112873554229736,
                1.34814453125,
                1.129443645477295
            ],
            "min" : [
                -1.1806998252868652,
                -1.435424566268921,
                -1.1625561714172363
            ],
            "type" : "VEC3"
        },
        {
            "bufferView" : 1,
            "componentType" : 5126,
            "count" : 1059,
            "type" : "VEC3"
        },
        {
            "bufferView" : 2,
            "componentType" : 5126,
            "count" : 1059,
            "type" : "VEC2"
        },
        {
            "bufferView" : 3,
            "componentType" : 5123,
            "count" : 1932,
            "type" : "SCALAR"
        },
        {
            "bufferView" : 4,
            "componentType" : 5126,
            "count" : 24,
            "max" : [
                1,
                1,
                1
            ],
            "min" : [
                -1,
                -1,
                -1
            ],
            "type" : "VEC3"
        },
        {
            "bufferView" : 5,
            "componentType" : 5126,
            "count" : 24,
            "type" : "VEC3"
        },
        {
            "bufferView" : 6,
            "componentType" : 5126,
            "count" : 24,
            "type" : "VEC2"
        },
        {
            "bufferView" : 7,
            "componentType" : 5123,
            "count" : 36,
            "type" : "SCALAR"
        },
        {
            "bufferView" : 8,
            "componentType" : 5126,
            "count" : 168,
            "max" : [
                1.1345033645629883,
                1.7084695100784302,
                0.6655967235565186
            ],
            "min" : [
                -1.157010555267334,
                -1.7084695100784302,
                -1.6736571788787842
            ],
            "type" : "VEC3"
        },
        {
            "bufferView" : 9,
            "componentType" : 5126,
            "count" : 168,
            "type" : "VEC3"
        },
        {
            "bufferView" : 10,
            "componentType" : 5126,
            "count" : 168,
            "type" : "VEC2"
        },
        {
            "bufferView" : 11,
            "componentType" : 5123,
            "count" : 264,
            "type" : "SCALAR"
        },
        {
            "bufferView" : 12,
            "componentType" : 5126,
            "count" : 24,
            "max" : [
                1,
                1,
                1
            ],
            "min" : [
                -1,
                -1,
                -1
            ],
            "type" : "VEC3"
        },
        {
            "bufferView" : 13,
            "componentType" : 5126,
            "count" : 24,
            "type" : "VEC3"
        },
        {
            "bufferView" : 14,
            "componentType" : 5126,
            "count" : 24,
            "type" : "VEC2"
        }
    ],
    "bufferViews" : [
        {
            "buffer" : 0,
            "byteLength" : 12708,
            "byteOffset" : 0
        },
        {
            "buffer" : 0,
            "byteLength" : 12708,
            "byteOffset" : 12708
        },
        {
            "buffer" : 0,
            "byteLength" : 8472,
            "byteOffset" : 25416
        },
        {
            "buffer" : 0,
            "byteLength" : 3864,
            "byteOffset" : 33888
        },
        {
            "buffer" : 0,
            "byteLength" : 288,
            "byteOffset" : 37752
        },
        {
            "buffer" : 0,
            "byteLength" : 288,
            "byteOffset" : 38040
        },
        {
            "buffer" : 0,
            "byteLength" : 192,
            "byteOffset" : 38328
        },
        {
            "buffer" : 0,
            "byteLength" : 72,
            "byteOffset" : 38520
        },
        {
            "buffer" : 0,
            "byteLength" : 2016,
            "byteOffset" : 38592
        },
        {
            "buffer" : 0,
            "byteLength" : 2016,
            "byteOffset" : 40608
        },
        {
            "buffer" : 0,
            "byteLength" : 1344,
            "byteOffset" : 42624
        },
        {
            "buffer" : 0,
            "byteLength" : 528,
            "byteOffset" : 43968
        },
        {
            "buffer" : 0,
            "byteLength" : 288,
            "byteOffset" : 44496
        },
        {
            "buffer" : 0,
            "byteLength" : 288,
            "byteOffset" : 44784
        },
        {
            "buffer" : 0,
            "byteLength" : 192,
            "byteOffset" : 45072
        }
    ],
    "buffers" : [
        {
            "byteLength" : 45264,
            "uri" : "glass_house.bin"
        }
    ]
}
